inDegrees=yes
name=ik_S54_A06_T02
DataType=double
version=3
OpenSimVersion=4.3-2021-08-27-4bc7ad9
endheader
time	pelvis_tilt	pelvis_list	pelvis_rotation	pelvis_tx	pelvis_ty	pelvis_tz	hip_flexion_r	hip_adduction_r	hip_rotation_r	knee_angle_r	knee_angle_r_beta	ankle_angle_r	subtalar_angle_r	mtp_angle_r	hip_flexion_l	hip_adduction_l	hip_rotation_l	knee_angle_l	knee_angle_l_beta	ankle_angle_l	subtalar_angle_l	mtp_angle_l	lumbar_extension	lumbar_bending	lumbar_rotation	arm_flex_r	arm_add_r	arm_rot_r	elbow_flex_r	pro_sup_r	wrist_flex_r	wrist_dev_r	arm_flex_l	arm_add_l	arm_rot_l	elbow_flex_l	pro_sup_l	wrist_flex_l	wrist_dev_l
15.01999999999977	-7.828129094472949	-0.3730871457031069	19.50611079026757	0	0.9399999999999999	0	34.17475525629544	-10.96012538694407	-9.762347658017234	43.19883380454218	0.7539618829110895	0	0	0	34.17475525629544	-10.96012538694407	-9.762347658017234	43.19883380454218	0.7539618829110895	0	0	0	-5.448786376290848	-1.296904701213034	-2.915766810654567	35.67836605566126	2.31679868190395	2.904827071677917	47.08839956817963	138.0817860862171	0	0	65.74182371379015	-31.88295533653138	0.6388292518198108	28.76673544391366	106.3909510894537	0	0
15.03999999999977	-7.855531706360743	-0.364885964998028	19.48833123966574	0	0.9399999999999999	0	34.17704193455415	-10.95944018065523	-9.762456889271254	43.20054464780336	0.7539917427589827	0	0	0	34.17704193455415	-10.95944018065523	-9.762456889271254	43.20054464780336	0.7539917427589827	0	0	0	-5.471884966579379	-1.290450730606925	-2.799753833714487	35.67514867106499	2.211212809816506	2.909136139896032	47.17732208204836	138.0136159885934	0	0	65.93857737553094	-31.60952916780843	1.111051024519309	29.35665460210085	106.6801489596964	0	0
15.05999999999977	-7.899914446683704	-0.353776756640828	19.47407616791264	0	0.9399999999999999	0	34.17937869439416	-10.95873815946658	-9.762568707430267	43.20228811201762	0.7540221719499123	0	0	0	34.17937869439416	-10.95873815946658	-9.762568707430267	43.20228811201762	0.7540221719499123	0	0	0	-5.510071941636212	-1.275161681731768	-2.6881142440065	35.69716194161099	2.1092676178842	2.946007022137054	47.26627017515533	137.972937805622	0	0	66.10213682048355	-31.29749926306491	1.642577156216113	29.85783657594283	106.6829127559681	0	0
15.07999999999977	-7.940819267939151	-0.3533636290258442	19.45171584956848	0	0.9399999999999999	0	34.18294148269221	-10.95766279820569	-9.762739727717795	43.2049332653853	0.7540683385853985	0	0	0	34.18294148269221	-10.95766279820569	-9.762739727717795	43.2049332653853	0.7540683385853985	0	0	0	-5.548449547964801	-1.274935750855283	-2.535695152533657	35.70794490522098	2.01336466592574	2.989448188650276	47.40013726529797	137.8914434654626	0	0	66.26785062661914	-30.88145920276513	2.374685672614709	30.58652356989579	106.5514819433708	0	0
15.09999999999977	-7.98149392021607	-0.3571274179023318	19.39475456368337	0	0.9399999999999999	0	34.18754395830399	-10.95627079246521	-9.762960981331123	43.20834110466261	0.7541278166011663	0	0	0	34.18754395830399	-10.95627079246521	-9.762960981331123	43.20834110466261	0.7541278166011663	0	0	0	-5.588094886289478	-1.278195032384446	-2.387661851119137	35.73124450444943	1.922028700082923	3.064744956391494	47.50920890587586	137.8516491123769	0	0	66.47199439800475	-30.44452430300047	3.106254642355064	31.41060048404643	106.3029816971519	0	0
15.11999999999977	-8.019715049918544	-0.3562687249284565	19.32560398881956	0	0.9399999999999999	0	34.19112990729177	-10.95518888078242	-9.76313311987472	43.21100051339291	0.7541742320396664	0	0	0	34.19112990729177	-10.95518888078242	-9.76313311987472	43.21100051339291	0.7541742320396664	0	0	0	-5.623382253130023	-1.278262558186789	-2.235775431022209	35.73653263767643	1.864882427692365	3.132271823380261	47.58917604261467	137.8273863978917	0	0	66.80379618377208	-29.92125261279224	3.7876431056532	32.21906542666234	106.1497620777234	0	0
15.13999999999977	-8.051892947473824	-0.3705832377351664	19.22719651039941	0	0.9399999999999999	0	34.19434891186501	-10.95421867699709	-9.763287559575495	43.21338868048989	0.7542159134185964	0	0	0	34.19434891186501	-10.95421867699709	-9.763287559575495	43.21338868048989	0.7542159134185964	0	0	0	-5.657993318015149	-1.294561210970628	-2.092705597017788	35.7692937482517	1.871103661139147	3.207990577227824	47.65134798082912	137.8131324608977	0	0	67.22533472923429	-29.37636445118941	4.544018249206173	33.05952377725475	106.0098012464527	0	0
15.15999999999977	-8.078918744626906	-0.3813001222646861	19.0896148410945	0	0.9399999999999999	0	34.19825718597616	-10.95303876898943	-9.763475295594684	43.21628175541176	0.7542664071014901	0	0	0	34.19825718597616	-10.95303876898943	-9.763475295594684	43.21628175541176	0.7542664071014901	0	0	0	-5.686181802469331	-1.309027115412105	-1.958107852267653	35.79048125817605	1.887586986993403	3.338104896263773	47.69201616208924	137.8190246045047	0	0	67.68631884285172	-28.78970069035306	5.397659769629162	33.97427457699863	105.7612123581195	0	0
15.17999999999977	-8.081652711606681	-0.3783152581282149	18.98808412221484	0	0.9399999999999999	0	34.20215655931209	-10.95186192429624	-9.7636625909154	43.21916716091921	0.7543167669278502	0	0	0	34.20215655931209	-10.95186192429624	-9.7636625909154	43.21916716091921	0.7543167669278502	0	0	0	-5.687189773958613	-1.315813419686623	-1.84229061594519	35.74815188063983	1.879136259770747	3.410006506702581	47.72267199977352	137.8316454080279	0	0	68.17138038926187	-28.1742147393633	6.197213958909669	33.43660567740412	105.4458214405276	0	0
15.19999999999976	-8.111538445061409	-0.4045960145869946	18.74665505130765	0	0.9399999999999999	0	34.20669049234267	-10.95049338836788	-9.763880418900561	43.22251903515038	0.7543752681692968	0	0	0	34.20669049234267	-10.95049338836788	-9.763880418900561	43.22251903515038	0.7543752681692968	0	0	0	-5.723930785152743	-1.348139848002363	-1.662561815818836	35.8423559193087	1.944925339158556	3.503377780084854	47.70392984324805	137.8769748219364	0	0	68.7125956157664	-27.27058822921451	7.173455047718547	35.64501387785218	105.3115751919062	0	0
15.21999999999976	-8.128255883943883	-0.3929323234739255	18.54604447168702	0	0.9399999999999999	0	34.20950291099934	-10.94964644799455	-9.764015352361112	43.22460151311586	0.7544116142663948	0	0	0	34.20950291099934	-10.94964644799455	-9.764015352361112	43.22460151311586	0.7544116142663948	0	0	0	-5.735760652537411	-1.341298823538696	-1.562484627661946	35.88868210963149	1.988935231658121	3.630122344892593	47.66892229713191	137.9065109590662	0	0	69.2003360764661	-26.43416402530492	7.94698747233075	36.40343512301918	105.2107682980252	0	0
15.23999999999976	-8.15117867027346	-0.3929712605842069	18.30349222753562	0	0.9399999999999999	0	34.21382539924621	-10.94834226034633	-9.764223022209919	43.22779413155715	0.7544673359699552	0	0	0	34.21382539924621	-10.94834226034633	-9.764223022209919	43.22779413155715	0.7544673359699552	0	0	0	-5.757898370288067	-1.341642187176064	-1.474687847119265	35.98324719445164	2.073232020964118	3.749642487702082	47.59861174109999	137.9506328857725	0	0	69.77540599480412	-25.55842194409668	8.899195157250919	37.10733538477258	104.9299832536383	0	0
15.25999999999976	-8.191607406845687	-0.3711444704845351	17.99263338595583	0	0.9399999999999999	0	34.21736845396683	-10.94727460176754	-9.764393128487109	43.23041241090849	0.754513033565373	0	0	0	34.21736845396683	-10.94727460176754	-9.764393128487109	43.23041241090849	0.754513033565373	0	0	0	-5.790051869059617	-1.312124130105491	-1.430122737797845	36.08909833849057	2.163800958567694	3.935180129823407	47.51040580940457	138.0105382828452	0	0	70.32217664180382	-24.66870023467482	9.873696693624758	37.71152171767911	104.5085552763114	0	0
15.27999999999976	-8.229364738095381	-0.3404649699423467	17.62861928160267	0	0.9399999999999999	0	34.22074865717138	-10.94625688173138	-9.764555346936762	43.23291081979513	0.7545566390265059	0	0	0	34.22074865717138	-10.94625688173138	-9.764555346936762	43.23291081979513	0.7545566390265059	0	0	0	-5.817179822350654	-1.27388882792418	-1.398328162336162	36.17216518577123	2.305765258830313	4.146524557711333	47.39281170901272	138.1092166710237	0	0	70.8432323414458	-23.69155687903579	10.96674181877333	38.21565373532209	103.9040901689239	0	0
15.29999999999976	-8.227270091373665	-0.3490180107721139	17.42077967359001	0	0.9399999999999999	0	34.22598980888147	-10.94467834438258	-9.764806967487337	43.23678043540228	0.7546241765596372	0	0	0	34.22598980888147	-10.94467834438258	-9.764806967487337	43.23678043540228	0.7546241765596372	0	0	0	-5.818340003938585	-1.300515167738484	-1.218645337630695	36.21628156412483	2.347948551093289	4.068132216372476	47.31100807928107	138.2042335019123	0	0	71.38913145060836	-22.42499388747495	12.28269003158385	38.58475271659794	103.1589822323611	0	0
15.31999999999976	-8.284699542006198	-0.314551699027294	16.96178753040484	0	0.9399999999999999	0	34.23047969909147	-10.94332762771727	-9.765022399092482	43.24009606039611	0.754682045132541	0	0	0	34.23047969909147	-10.94332762771727	-9.765022399092482	43.24009606039611	0.754682045132541	0	0	0	-5.864217928582286	-1.244656917210012	-1.267910220141024	36.37550900043441	2.54284699918528	4.493268385686262	47.18646993041273	138.2423196276813	0	0	71.91156734211516	-21.55058512915486	13.1476893493002	38.90860001519752	102.4662012025925	0	0
15.33999999999976	-8.274015126688939	-0.3025254309977875	16.7782935041347	0	0.9399999999999999	0	34.23366894791483	-10.94237130086096	-9.765175123225985	43.2424568745132	0.7547232491119118	0	0	0	34.23366894791483	-10.94237130086096	-9.765175123225985	43.2424568745132	0.7547232491119118	0	0	0	-5.850529687817063	-1.255257714982625	-1.077902152304058	36.34370728863497	2.523764356413176	4.483686088403391	47.13918769359444	138.238877467979	0	0	72.40086513082841	-20.19322416554451	14.20623212231236	39.07789240966853	102.0017762581602	0	0
15.35999999999976	-8.311984959232253	-0.2846568309377935	16.45291079762405	0	0.9399999999999999	0	34.23672924574382	-10.9414538151898	-9.765321670900299	43.24472136787198	0.7547627719769121	0	0	0	34.23672924574382	-10.9414538151898	-9.765321670900299	43.24472136787198	0.7547627719769121	0	0	0	-5.882443167257089	-1.233566868177447	-1.012961844889879	36.45459530011092	2.625685243467382	4.679586183059495	47.0482288682059	138.2811670847823	0	0	72.89882776590414	-19.01456850782526	15.16279863965368	39.16332784749876	101.5402336623386	0	0
